<svg width="1000" height="1000" xmlns="http://www.w3.org/2000/svg">
 <g id="Layer_1">
  <title>Layer 1</title>
  <rect id="svg_21" height="1074" width="1106" y="-18" x="-23.5" stroke-width="10" stroke="#000" fill="#feccd2"/>
  <ellipse fill="#e9d4ff" stroke="#000" cx="500" cy="500" id="svg_1" rx="490" ry="80" stroke-width="10"/>
  <ellipse fill="#e9d4ff" stroke="#000" cx="500" cy="500" id="svg_3" rx="490" ry="80" stroke-width="10" transform="rotate(10, 500, 500)"/>
  <ellipse fill="#e9d4ff" stroke="#000" cx="500" cy="500" id="svg_4" rx="490" ry="80" stroke-width="10" transform="rotate(20, 500, 500)"/>
  <ellipse fill="#e9d4ff" stroke="#000" cx="500" cy="500" id="svg_5" rx="490" ry="80" stroke-width="10" transform="rotate(30, 500, 500)"/>
  <ellipse fill="#e9d4ff" stroke="#000" cx="500" cy="500" id="svg_6" rx="490" ry="80" stroke-width="10" transform="rotate(40, 500, 500)"/>
  <ellipse fill="#e9d4ff" stroke="#000" cx="500" cy="500" id="svg_7" rx="490" ry="80" stroke-width="10" transform="rotate(50, 500, 500)"/>
  <ellipse fill="#e9d4ff" stroke="#000" cx="500" cy="500" id="svg_8" rx="490" ry="80" stroke-width="10" transform="rotate(60, 500, 500)"/>
  <ellipse fill="#e9d4ff" stroke="#000" cx="500" cy="500" id="svg_9" rx="490" ry="80" stroke-width="10" transform="rotate(70, 500, 500)"/>
  <ellipse fill="#e9d4ff" stroke="#000" cx="500" cy="500" id="svg_10" rx="490" ry="80" stroke-width="10" transform="rotate(80, 500, 500)"/>
  <ellipse fill="#e9d4ff" stroke="#000" cx="500" cy="500" id="svg_11" rx="490" ry="80" stroke-width="10" transform="rotate(90, 500, 500)"/>
  <ellipse fill="#e9d4ff" stroke="#000" cx="500" cy="500" id="svg_12" rx="490" ry="80" stroke-width="10" transform="rotate(100, 500, 500)"/>
  <ellipse fill="#e9d4ff" stroke="#000" cx="501" cy="500" id="svg_13" rx="490" ry="80" stroke-width="10" transform="rotate(110, 501, 500)"/>
  <ellipse fill="#e9d4ff" stroke="#000" cx="500" cy="500" id="svg_14" rx="490" ry="80" stroke-width="10" transform="rotate(120, 500, 500)"/>
  <ellipse fill="#e9d4ff" stroke="#000" cx="500" cy="500" id="svg_15" rx="490" ry="80" stroke-width="10" transform="rotate(130, 500, 500)"/>
  <ellipse fill="#e9d4ff" stroke="#000" cx="500" cy="500" id="svg_16" rx="490" ry="80" stroke-width="10" transform="rotate(140, 500, 500)"/>
  <ellipse fill="#e9d4ff" stroke="#000" cx="500" cy="500" id="svg_17" rx="490" ry="80" stroke-width="10" transform="rotate(150, 500, 500)"/>
  <ellipse fill="#e9d4ff" stroke="#000" cx="500" cy="500" id="svg_18" rx="490" ry="80" stroke-width="10" transform="rotate(160, 500, 500)"/>
  <path id="svg_19" d="m500,580c-270.71823,0 -490,-35.8011 -490,-80c0,-44.1989 219.28177,-80 490,-80c270.71823,0 490,35.8011 490,80c0,44.1989 -219.28177,80 -490,80z" transform="rotate(170, 500, 500)" opacity="undefined" stroke-width="10" stroke="#000" fill="#e9d4ff"/>
 </g>

</svg>