<svg width="1000" height="1000" xmlns="http://www.w3.org/2000/svg">
 <g id="Layer_1">
  <title>Layer 1</title>
  <ellipse stroke-width="3" ry="80" rx="490" id="svg_1" cy="500" cx="500" stroke="#000" fill="#fff"/>
  <ellipse transform="rotate(10, 500, 500)" stroke-width="3" ry="80" rx="490" id="svg_3" cy="500" cx="500" stroke="#000" fill="#fff"/>
  <ellipse transform="rotate(20, 500, 500)" stroke-width="3" ry="80" rx="490" id="svg_4" cy="500" cx="500" stroke="#000" fill="#fff"/>
  <ellipse transform="rotate(30, 500, 500)" stroke-width="3" ry="80" rx="490" id="svg_5" cy="500" cx="500" stroke="#000" fill="#fff"/>
  <ellipse transform="rotate(40, 500, 500)" stroke-width="3" ry="80" rx="490" id="svg_6" cy="500" cx="500" stroke="#000" fill="#fff"/>
  <ellipse transform="rotate(50, 500, 500)" stroke-width="3" ry="80" rx="490" id="svg_7" cy="500" cx="500" stroke="#000" fill="#fff"/>
  <ellipse transform="rotate(60, 500, 500)" stroke-width="3" ry="80" rx="490" id="svg_8" cy="500" cx="500" stroke="#000" fill="#fff"/>
  <ellipse transform="rotate(70, 500, 500)" stroke-width="3" ry="80" rx="490" id="svg_9" cy="500" cx="500" stroke="#000" fill="#fff"/>
  <ellipse transform="rotate(80, 500, 500)" stroke-width="3" ry="80" rx="490" id="svg_10" cy="500" cx="500" stroke="#000" fill="#fff"/>
  <ellipse transform="rotate(90, 500, 500)" stroke-width="3" ry="80" rx="490" id="svg_11" cy="500" cx="500" stroke="#000" fill="#fff"/>
  <ellipse transform="rotate(100, 500, 500)" stroke-width="3" ry="80" rx="490" id="svg_12" cy="500" cx="500" stroke="#000" fill="#fff"/>
  <ellipse transform="rotate(110, 500, 500)" stroke-width="3" ry="80" rx="490" id="svg_13" cy="500" cx="500" stroke="#000" fill="#fff"/>
  <ellipse transform="rotate(120, 500, 500)" stroke-width="3" ry="80" rx="490" id="svg_14" cy="500" cx="500" stroke="#000" fill="#fff"/>
  <ellipse transform="rotate(130, 500, 500)" stroke-width="3" ry="80" rx="490" id="svg_15" cy="500" cx="500" stroke="#000" fill="#fff"/>
  <ellipse transform="rotate(140, 500, 500)" stroke-width="3" ry="80" rx="490" id="svg_16" cy="500" cx="500" stroke="#000" fill="#fff"/>
  <ellipse transform="rotate(150, 500, 500)" stroke-width="3" ry="80" rx="490" id="svg_17" cy="500" cx="500" stroke="#000" fill="#fff"/>
  <ellipse transform="rotate(160, 500, 500)" stroke-width="3" ry="80" rx="490" id="svg_18" cy="500" cx="500" stroke="#000" fill="#fff"/>
  <ellipse transform="rotate(170, 500, 500)" stroke-width="3" ry="80" rx="490" id="svg_19" cy="500" cx="500" stroke="#000" fill="#fff"/>
 </g>
</svg>