<svg width="1000" height="1000" xmlns="http://www.w3.org/2000/svg">
 <g>
  <title>Layer 1</title>
  <ellipse opacity="0" ry="13.75" rx="15.53571" id="svg_2" cy="66.25" cx="33.75" stroke="#000" fill="#fff"/>
  <g id="svg_3">
   <ellipse fill="#fff" stroke="#000" cx="260.50491" cy="196.07277" id="svg_21" rx="99.31372" ry="8.33334" transform="matrix(-4.20964, -2.63361, 2.63047, -4.21465, 1081.35, 2011.5)"/>
   <ellipse fill="#fff" stroke="#000" cx="259.26884" cy="201.63052" id="svg_22" rx="99.31372" ry="8.33334" transform="matrix(-4.46154, -2.17863, 2.17603, -4.46688, 1218.47, 1964.56)"/>
   <ellipse fill="#fff" stroke="#000" cx="257.4587" cy="207.0286" id="svg_23" rx="99.31372" ry="8.33334" transform="matrix(-4.66453, -1.69978, 1.69775, -4.67012, 1349.93, 1903.53)"/>
   <ellipse fill="#fff" stroke="#000" cx="255.09413" cy="212.20789" id="svg_24" rx="99.31372" ry="8.33334" transform="matrix(-4.81644, -1.20231, 1.20088, -4.82223, 1474.3, 1829.07)"/>
   <ellipse fill="#fff" stroke="#000" cx="252.20108" cy="217.11168" id="svg_25" rx="99.31372" ry="8.33334" transform="matrix(-4.91559, -0.691668, 0.69084, -4.92148, 1590.22, 1742)"/>
   <ellipse fill="#fff" stroke="#000" cx="248.81136" cy="221.68622" id="svg_26" rx="99.31372" ry="8.33334" transform="matrix(-4.96087, -0.173445, 0.173238, -4.96681, 1696.41, 1643.28)"/>
   <ellipse fill="#fff" stroke="#000" cx="168.76356" cy="148.2364" id="svg_29" rx="99.31372" ry="8.33334" transform="matrix(4.95182, -0.346677, 0.346264, 4.95772, -386.524, -177.355)"/>
   <ellipse fill="#fff" stroke="#000" cx="173.03025" cy="144.46661" id="svg_30" rx="99.31372" ry="8.33334" transform="matrix(4.88848, -0.863005, 0.861972, 4.89433, -469.893, -58.6879)"/>
   <ellipse fill="#fff" stroke="#000" cx="177.66772" cy="141.16351" id="svg_31" rx="99.31372" ry="8.33334" transform="matrix(4.77161, -1.36987, 1.36824, 4.77732, -540.415, 68.0542)"/>
   <ellipse fill="#fff" stroke="#000" cx="182.625" cy="138.36325" id="svg_32" rx="99.31372" ry="8.33334" transform="matrix(4.60245, -1.86173, 1.85951, 4.60797, -597.322, 201.483)"/>
   <ellipse fill="#fff" stroke="#000" cx="187.84787" cy="136.09644" id="svg_33" rx="99.31372" ry="8.33334" transform="matrix(4.38286, -2.3332, 2.33041, 4.38811, -639.984, 340.135)"/>
   <ellipse fill="#fff" stroke="#000" cx="193.27906" cy="134.38808" id="svg_34" rx="99.31372" ry="8.33334" transform="matrix(4.11527, -2.7791, 2.77578, 4.12019, -667.934, 482.493)"/>
   <ellipse fill="#fff" stroke="#000" cx="198.85907" cy="133.25673" id="svg_35" rx="99.31372" ry="8.33334" transform="matrix(3.80258, -3.19455, 3.19074, 3.80713, -680.872, 626.997)"/>
   <ellipse fill="#fff" stroke="#000" cx="204.52681" cy="132.71482" id="svg_36" rx="99.31372" ry="8.33334" transform="matrix(3.44822, -3.57501, 3.57074, 3.45234, -678.653, 772.06)"/>
   <path fill="#fff" stroke="#000" opacity="NaN" d="m868.40256,563.3701" id="svg_1"/>
   <ellipse fill="#fff" stroke="#000" cx="215.87664" cy="133.41673" id="svg_6" rx="99.31372" ry="8.33334" transform="matrix(2.63047, -4.21465, 4.20964, 2.63361, -629, 1057.53)"/>
   <ellipse fill="#fff" stroke="#000" cx="221.4344" cy="134.6528" id="svg_7" rx="99.31372" ry="8.33334" transform="matrix(2.17603, -4.46688, 4.46154, 2.17863, -582.113, 1194.81)"/>
   <ellipse fill="#fff" stroke="#000" cx="226.83247" cy="136.46294" id="svg_8" rx="99.31372" ry="8.33334" transform="matrix(1.69775, -4.67012, 4.66453, 1.69978, -521.154, 1326.43)"/>
   <ellipse fill="#fff" stroke="#000" cx="232.01176" cy="138.82751" id="svg_9" rx="99.31372" ry="8.33334" transform="matrix(1.20088, -4.82223, 4.81644, 1.20231, -446.784, 1450.95)"/>
   <ellipse fill="#fff" stroke="#000" cx="236.91555" cy="141.72056" id="svg_10" rx="99.31372" ry="8.33334" transform="matrix(0.69084, -4.92148, 4.91559, 0.691668, -359.822, 1567)"/>
   <ellipse fill="#fff" stroke="#000" cx="241.49009" cy="145.11028" id="svg_11" rx="99.31372" ry="8.33334" transform="matrix(0.173238, -4.96681, 4.96087, 0.173445, -261.22, 1673.32)"/>
   <ellipse fill="#fff" stroke="#000" cx="245.68523" cy="148.95969" id="svg_12" rx="99.31372" ry="8.33334" transform="matrix(-0.346264, -4.95772, 4.95182, -0.346677, -152.058, 1768.73)"/>
   <ellipse fill="#fff" stroke="#000" cx="249.45503" cy="153.22638" id="svg_13" rx="99.31372" ry="8.33334" transform="matrix(-0.861972, -4.89433, 4.88848, -0.863005, -33.5326, 1852.2)"/>
   <ellipse fill="#fff" stroke="#000" cx="252.75812" cy="157.86386" id="svg_14" rx="99.31372" ry="8.33334" transform="matrix(-1.36824, -4.77732, 4.77161, -1.36987, 93.0583, 1922.81)"/>
   <ellipse fill="#fff" stroke="#000" cx="255.55839" cy="162.82113" id="svg_15" rx="99.31372" ry="8.33334" transform="matrix(-1.85951, -4.60797, 4.60245, -1.86173, 226.327, 1979.78)"/>
   <ellipse fill="#fff" stroke="#000" cx="257.8252" cy="168.04401" id="svg_16" rx="99.31372" ry="8.33334" transform="matrix(-2.33041, -4.38811, 4.38286, -2.3332, 364.813, 2022.5)"/>
   <ellipse fill="#fff" stroke="#000" cx="259.53356" cy="173.4752" id="svg_17" rx="99.31372" ry="8.33334" transform="matrix(-2.77578, -4.12019, 4.11527, -2.7791, 507.003, 2050.48)"/>
   <ellipse fill="#fff" stroke="#000" cx="260.6649" cy="179.05521" id="svg_18" rx="99.31372" ry="8.33334" transform="matrix(-3.19074, -3.80713, 3.80258, -3.19455, 651.334, 2063.44)"/>
   <ellipse fill="#fff" stroke="#000" cx="261.20681" cy="184.72294" id="svg_19" rx="99.31372" ry="8.33334" transform="matrix(-3.57074, -3.45234, 3.44822, -3.57501, 796.224, 2061.21)"/>
   <ellipse fill="#fff" stroke="#000" cx="261.15325" cy="190.41626" id="svg_20" rx="99.31372" ry="8.33334" transform="matrix(-3.91162, -3.05974, 3.05608, -3.9163, 940.091, 2043.84)"/>
   <ellipse fill="#fff" stroke="#000" cx="210.22013" cy="132.76838" id="svg_37" rx="99.31372" ry="8.33334" transform="matrix(3.05608, -3.9163, 3.91162, 3.05974, -661.3, 916.101)"/>
  </g>
 </g>

</svg>