<svg width="2257" height="1000" xmlns="http://www.w3.org/2000/svg">
 <g id="Layer_1">
  <title>Layer 1</title>
  <ellipse stroke-width="7" ry="80" rx="200" id="svg_1" cy="794.66717" cx="203.99952" stroke="#000" fill="#fff"/>
  <ellipse transform="rotate(10, 204, 794.667)" stroke-width="7" ry="80" rx="200" id="svg_3" cy="794.66717" cx="203.99952" stroke="#000" fill="#fff"/>
  <ellipse transform="rotate(20, 204, 794.667)" stroke-width="7" ry="80" rx="200" id="svg_4" cy="794.66717" cx="203.99952" stroke="#000" fill="#fff"/>
  <ellipse transform="rotate(30, 204, 794.667)" stroke-width="7" ry="80" rx="200" id="svg_5" cy="794.66717" cx="203.99952" stroke="#000" fill="#fff"/>
  <ellipse transform="rotate(40, 204, 794.667)" stroke-width="7" ry="80" rx="200" id="svg_6" cy="794.66717" cx="203.99952" stroke="#000" fill="#fff"/>
  <ellipse transform="rotate(50, 204, 794.667)" stroke-width="7" ry="80" rx="200" id="svg_7" cy="794.66717" cx="203.99952" stroke="#000" fill="#fff"/>
  <ellipse transform="rotate(60, 204, 794.667)" stroke-width="7" ry="80" rx="200" id="svg_8" cy="794.66717" cx="203.99952" stroke="#000" fill="#fff"/>
  <ellipse transform="rotate(70, 204, 794.667)" stroke-width="7" ry="80" rx="200" id="svg_9" cy="794.66717" cx="203.99952" stroke="#000" fill="#fff"/>
  <ellipse transform="rotate(80, 203.999, 794.667)" stroke-width="7" ry="80" rx="200" id="svg_10" cy="794.66717" cx="203.99952" stroke="#000" fill="#fff"/>
  <ellipse transform="rotate(90, 204, 794.667)" stroke-width="7" ry="80" rx="200" id="svg_11" cy="794.66717" cx="203.99952" stroke="#000" fill="#fff"/>
  <ellipse transform="rotate(100, 204, 794.667)" stroke-width="7" ry="80" rx="200" id="svg_12" cy="794.66717" cx="203.99952" stroke="#000" fill="#fff"/>
  <ellipse transform="rotate(110, 203.999, 794.667)" stroke-width="7" ry="80" rx="200" id="svg_13" cy="794.66717" cx="203.99952" stroke="#000" fill="#fff"/>
  <ellipse transform="rotate(120, 204, 794.667)" stroke-width="7" ry="80" rx="200" id="svg_14" cy="794.66717" cx="203.99952" stroke="#000" fill="#fff"/>
  <ellipse transform="rotate(130, 204, 794.667)" stroke-width="7" ry="80" rx="200" id="svg_15" cy="794.66717" cx="203.99952" stroke="#000" fill="#fff"/>
  <ellipse transform="rotate(140, 203.999, 794.667)" stroke-width="7" ry="80" rx="200" id="svg_16" cy="794.66717" cx="203.99952" stroke="#000" fill="#fff"/>
  <ellipse transform="rotate(150, 204, 794.667)" stroke-width="7" ry="80" rx="200" id="svg_17" cy="794.66717" cx="203.99952" stroke="#000" fill="#fff"/>
  <ellipse transform="rotate(160, 204, 794.667)" stroke-width="7" ry="80" rx="200" id="svg_18" cy="794.66717" cx="203.99952" stroke="#000" fill="#fff"/>
  <ellipse transform="rotate(170, 204, 794.667)" stroke-width="7" ry="80" rx="200" id="svg_19" cy="794.66717" cx="203.99952" stroke="#000" fill="#fff"/>
  <ellipse stroke-width="7" ry="80" rx="200" id="svg_20" cy="203.99951" cx="201.33284" stroke="#000" fill="#fff"/>
  <ellipse transform="rotate(10, 201.333, 203.999)" stroke-width="7" ry="80" rx="200" id="svg_21" cy="203.99951" cx="201.33284" stroke="#000" fill="#fff"/>
  <ellipse transform="rotate(20, 201.333, 203.999)" stroke-width="7" ry="80" rx="200" id="svg_22" cy="203.99951" cx="201.33284" stroke="#000" fill="#fff"/>
  <ellipse transform="rotate(30, 201.333, 203.999)" stroke-width="7" ry="80" rx="200" id="svg_23" cy="203.99951" cx="201.33284" stroke="#000" fill="#fff"/>
  <ellipse transform="rotate(40, 201.333, 203.999)" stroke-width="7" ry="80" rx="200" id="svg_24" cy="203.99951" cx="201.33284" stroke="#000" fill="#fff"/>
  <ellipse transform="rotate(50, 201.333, 203.999)" stroke-width="7" ry="80" rx="200" id="svg_25" cy="203.99951" cx="201.33284" stroke="#000" fill="#fff"/>
  <ellipse transform="rotate(60, 201.333, 203.999)" stroke-width="7" ry="80" rx="200" id="svg_26" cy="203.99951" cx="201.33284" stroke="#000" fill="#fff"/>
  <ellipse transform="rotate(70, 201.333, 203.999)" stroke-width="7" ry="80" rx="200" id="svg_27" cy="203.99951" cx="201.33284" stroke="#000" fill="#fff"/>
  <ellipse transform="rotate(80, 201.332, 203.999)" stroke-width="7" ry="80" rx="200" id="svg_28" cy="203.99951" cx="201.33284" stroke="#000" fill="#fff"/>
  <ellipse transform="rotate(90, 201.333, 203.999)" stroke-width="7" ry="80" rx="200" id="svg_29" cy="203.99951" cx="201.33284" stroke="#000" fill="#fff"/>
  <ellipse transform="rotate(100, 201.333, 203.999)" stroke-width="7" ry="80" rx="200" id="svg_30" cy="203.99951" cx="201.33284" stroke="#000" fill="#fff"/>
  <ellipse transform="rotate(110, 201.332, 203.999)" stroke-width="7" ry="80" rx="200" id="svg_31" cy="203.99951" cx="201.33284" stroke="#000" fill="#fff"/>
  <ellipse transform="rotate(120, 201.333, 203.999)" stroke-width="7" ry="80" rx="200" id="svg_32" cy="203.99951" cx="201.33284" stroke="#000" fill="#fff"/>
  <ellipse transform="rotate(130, 201.333, 203.999)" stroke-width="7" ry="80" rx="200" id="svg_33" cy="203.99951" cx="201.33284" stroke="#000" fill="#fff"/>
  <ellipse transform="rotate(140, 201.332, 203.999)" stroke-width="7" ry="80" rx="200" id="svg_34" cy="203.99951" cx="201.33284" stroke="#000" fill="#fff"/>
  <ellipse transform="rotate(150, 201.333, 203.999)" stroke-width="7" ry="80" rx="200" id="svg_35" cy="203.99951" cx="201.33284" stroke="#000" fill="#fff"/>
  <ellipse transform="rotate(160, 201.333, 203.999)" stroke-width="7" ry="80" rx="200" id="svg_36" cy="203.99951" cx="201.33284" stroke="#000" fill="#fff"/>
  <ellipse transform="rotate(170, 201.333, 203.999)" stroke-width="7" ry="80" rx="200" id="svg_37" cy="203.99951" cx="201.33284" stroke="#000" fill="#fff"/>
  <ellipse stroke-width="7" ry="80" rx="200" id="svg_38" cy="517.33337" cx="656.00031" stroke="#000" fill="#fff"/>
  <ellipse transform="rotate(10, 656.001, 517.333)" stroke-width="7" ry="80" rx="200" id="svg_39" cy="517.33337" cx="656.00031" stroke="#000" fill="#fff"/>
  <ellipse transform="rotate(20, 656.001, 517.333)" stroke-width="7" ry="80" rx="200" id="svg_40" cy="517.33337" cx="656.00031" stroke="#000" fill="#fff"/>
  <ellipse transform="rotate(30, 656.001, 517.333)" stroke-width="7" ry="80" rx="200" id="svg_41" cy="517.33337" cx="656.00031" stroke="#000" fill="#fff"/>
  <ellipse transform="rotate(40, 656.001, 517.333)" stroke-width="7" ry="80" rx="200" id="svg_42" cy="517.33337" cx="656.00031" stroke="#000" fill="#fff"/>
  <ellipse transform="rotate(50, 656.001, 517.333)" stroke-width="7" ry="80" rx="200" id="svg_43" cy="517.33337" cx="656.00031" stroke="#000" fill="#fff"/>
  <ellipse transform="rotate(60, 656.001, 517.333)" stroke-width="7" ry="80" rx="200" id="svg_44" cy="517.33337" cx="656.00031" stroke="#000" fill="#fff"/>
  <ellipse transform="rotate(70, 656.001, 517.333)" stroke-width="7" ry="80" rx="200" id="svg_45" cy="517.33337" cx="656.00031" stroke="#000" fill="#fff"/>
  <ellipse transform="rotate(80, 656, 517.333)" stroke-width="7" ry="80" rx="200" id="svg_46" cy="517.33337" cx="656.00031" stroke="#000" fill="#fff"/>
  <ellipse transform="rotate(90, 656.001, 517.333)" stroke-width="7" ry="80" rx="200" id="svg_47" cy="517.33337" cx="656.00031" stroke="#000" fill="#fff"/>
  <ellipse transform="rotate(100, 656.001, 517.333)" stroke-width="7" ry="80" rx="200" id="svg_48" cy="517.33337" cx="656.00031" stroke="#000" fill="#fff"/>
  <ellipse transform="rotate(110, 656, 517.333)" stroke-width="7" ry="80" rx="200" id="svg_49" cy="517.33337" cx="656.00031" stroke="#000" fill="#fff"/>
  <ellipse transform="rotate(120, 656.001, 517.333)" stroke-width="7" ry="80" rx="200" id="svg_50" cy="517.33337" cx="656.00031" stroke="#000" fill="#fff"/>
  <ellipse transform="rotate(130, 656.001, 517.333)" stroke-width="7" ry="80" rx="200" id="svg_51" cy="517.33337" cx="656.00031" stroke="#000" fill="#fff"/>
  <ellipse transform="rotate(140, 656, 517.333)" stroke-width="7" ry="80" rx="200" id="svg_52" cy="517.33337" cx="656.00031" stroke="#000" fill="#fff"/>
  <ellipse transform="rotate(150, 656.001, 517.333)" stroke-width="7" ry="80" rx="200" id="svg_53" cy="517.33337" cx="656.00031" stroke="#000" fill="#fff"/>
  <ellipse transform="rotate(160, 656.001, 517.333)" stroke-width="7" ry="80" rx="200" id="svg_54" cy="517.33337" cx="656.00031" stroke="#000" fill="#fff"/>
  <ellipse transform="rotate(170, 656.001, 517.333)" stroke-width="7" ry="80" rx="200" id="svg_55" cy="517.33337" cx="656.00031" stroke="#000" fill="#fff"/>
  <ellipse stroke-width="7" ry="80" rx="200" id="svg_56" cy="210.66616" cx="1117.33443" stroke="#000" fill="#fff"/>
  <ellipse transform="rotate(10, 1117.34, 210.666)" stroke-width="7" ry="80" rx="200" id="svg_57" cy="210.66616" cx="1117.33443" stroke="#000" fill="#fff"/>
  <ellipse transform="rotate(20, 1117.34, 210.666)" stroke-width="7" ry="80" rx="200" id="svg_58" cy="210.66616" cx="1117.33443" stroke="#000" fill="#fff"/>
  <ellipse transform="rotate(30, 1117.34, 210.666)" stroke-width="7" ry="80" rx="200" id="svg_59" cy="210.66616" cx="1117.33443" stroke="#000" fill="#fff"/>
  <ellipse transform="rotate(40, 1117.34, 210.666)" stroke-width="7" ry="80" rx="200" id="svg_60" cy="210.66616" cx="1117.33443" stroke="#000" fill="#fff"/>
  <ellipse transform="rotate(50, 1117.34, 210.666)" stroke-width="7" ry="80" rx="200" id="svg_61" cy="210.66616" cx="1117.33443" stroke="#000" fill="#fff"/>
  <ellipse transform="rotate(60, 1117.34, 210.666)" stroke-width="7" ry="80" rx="200" id="svg_62" cy="210.66616" cx="1117.33443" stroke="#000" fill="#fff"/>
  <ellipse transform="rotate(70, 1117.34, 210.666)" stroke-width="7" ry="80" rx="200" id="svg_63" cy="210.66616" cx="1117.33443" stroke="#000" fill="#fff"/>
  <ellipse transform="rotate(80, 1117.33, 210.666)" stroke-width="7" ry="80" rx="200" id="svg_64" cy="210.66616" cx="1117.33443" stroke="#000" fill="#fff"/>
  <ellipse transform="rotate(90, 1117.34, 210.666)" stroke-width="7" ry="80" rx="200" id="svg_65" cy="210.66616" cx="1117.33443" stroke="#000" fill="#fff"/>
  <ellipse transform="rotate(100, 1117.34, 210.666)" stroke-width="7" ry="80" rx="200" id="svg_66" cy="210.66616" cx="1117.33443" stroke="#000" fill="#fff"/>
  <ellipse transform="rotate(110, 1117.33, 210.666)" stroke-width="7" ry="80" rx="200" id="svg_67" cy="210.66616" cx="1117.33443" stroke="#000" fill="#fff"/>
  <ellipse transform="rotate(120, 1117.34, 210.666)" stroke-width="7" ry="80" rx="200" id="svg_68" cy="210.66616" cx="1117.33443" stroke="#000" fill="#fff"/>
  <ellipse transform="rotate(130, 1117.34, 210.666)" stroke-width="7" ry="80" rx="200" id="svg_69" cy="210.66616" cx="1117.33443" stroke="#000" fill="#fff"/>
  <ellipse transform="rotate(140, 1117.33, 210.666)" stroke-width="7" ry="80" rx="200" id="svg_70" cy="210.66616" cx="1117.33443" stroke="#000" fill="#fff"/>
  <ellipse transform="rotate(150, 1117.34, 210.666)" stroke-width="7" ry="80" rx="200" id="svg_71" cy="210.66616" cx="1117.33443" stroke="#000" fill="#fff"/>
  <ellipse transform="rotate(160, 1117.34, 210.666)" stroke-width="7" ry="80" rx="200" id="svg_72" cy="210.66616" cx="1117.33443" stroke="#000" fill="#fff"/>
  <ellipse transform="rotate(170, 1117.34, 210.666)" stroke-width="7" ry="80" rx="200" id="svg_73" cy="210.66616" cx="1117.33443" stroke="#000" fill="#fff"/>
  <ellipse stroke-width="7" ry="80" rx="200" id="svg_74" cy="792.00051" cx="1117.33443" stroke="#000" fill="#fff"/>
  <ellipse transform="rotate(10, 1117.34, 792)" stroke-width="7" ry="80" rx="200" id="svg_75" cy="792.00051" cx="1117.33443" stroke="#000" fill="#fff"/>
  <ellipse transform="rotate(20, 1117.34, 792)" stroke-width="7" ry="80" rx="200" id="svg_76" cy="792.00051" cx="1117.33443" stroke="#000" fill="#fff"/>
  <ellipse transform="rotate(30, 1117.34, 792)" stroke-width="7" ry="80" rx="200" id="svg_77" cy="792.00051" cx="1117.33443" stroke="#000" fill="#fff"/>
  <ellipse transform="rotate(40, 1117.34, 792)" stroke-width="7" ry="80" rx="200" id="svg_78" cy="792.00051" cx="1117.33443" stroke="#000" fill="#fff"/>
  <ellipse transform="rotate(50, 1117.34, 792)" stroke-width="7" ry="80" rx="200" id="svg_79" cy="792.00051" cx="1117.33443" stroke="#000" fill="#fff"/>
  <ellipse transform="rotate(60, 1117.34, 792)" stroke-width="7" ry="80" rx="200" id="svg_80" cy="792.00051" cx="1117.33443" stroke="#000" fill="#fff"/>
  <ellipse transform="rotate(70, 1117.34, 792)" stroke-width="7" ry="80" rx="200" id="svg_81" cy="792.00051" cx="1117.33443" stroke="#000" fill="#fff"/>
  <ellipse transform="rotate(80, 1117.33, 792)" stroke-width="7" ry="80" rx="200" id="svg_82" cy="792.00051" cx="1117.33443" stroke="#000" fill="#fff"/>
  <ellipse transform="rotate(90, 1117.34, 792)" stroke-width="7" ry="80" rx="200" id="svg_83" cy="792.00051" cx="1117.33443" stroke="#000" fill="#fff"/>
  <ellipse transform="rotate(100, 1117.34, 792)" stroke-width="7" ry="80" rx="200" id="svg_84" cy="792.00051" cx="1117.33443" stroke="#000" fill="#fff"/>
  <ellipse transform="rotate(110, 1117.33, 792)" stroke-width="7" ry="80" rx="200" id="svg_85" cy="792.00051" cx="1117.33443" stroke="#000" fill="#fff"/>
  <ellipse transform="rotate(120, 1117.34, 792)" stroke-width="7" ry="80" rx="200" id="svg_86" cy="792.00051" cx="1117.33443" stroke="#000" fill="#fff"/>
  <ellipse transform="rotate(130, 1117.34, 792)" stroke-width="7" ry="80" rx="200" id="svg_87" cy="792.00051" cx="1117.33443" stroke="#000" fill="#fff"/>
  <ellipse transform="rotate(140, 1117.33, 792)" stroke-width="7" ry="80" rx="200" id="svg_88" cy="792.00051" cx="1117.33443" stroke="#000" fill="#fff"/>
  <ellipse transform="rotate(150, 1117.34, 792)" stroke-width="7" ry="80" rx="200" id="svg_89" cy="792.00051" cx="1117.33443" stroke="#000" fill="#fff"/>
  <ellipse transform="rotate(160, 1117.34, 792)" stroke-width="7" ry="80" rx="200" id="svg_90" cy="792.00051" cx="1117.33443" stroke="#000" fill="#fff"/>
  <ellipse transform="rotate(170, 1117.34, 792)" stroke-width="7" ry="80" rx="200" id="svg_91" cy="792.00051" cx="1117.33443" stroke="#000" fill="#fff"/>
  <ellipse stroke-width="7" ry="80" rx="200" id="svg_92" cy="513.33336" cx="1592.00196" stroke="#000" fill="#fff"/>
  <ellipse transform="rotate(10, 1592, 513.333)" stroke-width="7" ry="80" rx="200" id="svg_93" cy="513.33336" cx="1592.00196" stroke="#000" fill="#fff"/>
  <ellipse transform="rotate(20, 1592, 513.333)" stroke-width="7" ry="80" rx="200" id="svg_94" cy="513.33336" cx="1592.00196" stroke="#000" fill="#fff"/>
  <ellipse transform="rotate(30, 1592, 513.333)" stroke-width="7" ry="80" rx="200" id="svg_95" cy="513.33336" cx="1592.00196" stroke="#000" fill="#fff"/>
  <ellipse transform="rotate(40, 1592, 513.333)" stroke-width="7" ry="80" rx="200" id="svg_96" cy="513.33336" cx="1592.00196" stroke="#000" fill="#fff"/>
  <ellipse transform="rotate(50, 1592, 513.333)" stroke-width="7" ry="80" rx="200" id="svg_97" cy="513.33336" cx="1592.00196" stroke="#000" fill="#fff"/>
  <ellipse transform="rotate(60, 1592, 513.333)" stroke-width="7" ry="80" rx="200" id="svg_98" cy="513.33336" cx="1592.00196" stroke="#000" fill="#fff"/>
  <ellipse transform="rotate(70, 1592, 513.333)" stroke-width="7" ry="80" rx="200" id="svg_99" cy="513.33336" cx="1592.00196" stroke="#000" fill="#fff"/>
  <ellipse transform="rotate(80, 1592, 513.333)" stroke-width="7" ry="80" rx="200" id="svg_100" cy="513.33336" cx="1592.00196" stroke="#000" fill="#fff"/>
  <ellipse transform="rotate(90, 1592, 513.333)" stroke-width="7" ry="80" rx="200" id="svg_101" cy="513.33336" cx="1592.00196" stroke="#000" fill="#fff"/>
  <ellipse transform="rotate(100, 1592, 513.333)" stroke-width="7" ry="80" rx="200" id="svg_102" cy="513.33336" cx="1592.00196" stroke="#000" fill="#fff"/>
  <ellipse transform="rotate(110, 1592, 513.333)" stroke-width="7" ry="80" rx="200" id="svg_103" cy="513.33336" cx="1592.00196" stroke="#000" fill="#fff"/>
  <ellipse transform="rotate(120, 1592, 513.333)" stroke-width="7" ry="80" rx="200" id="svg_104" cy="513.33336" cx="1592.00196" stroke="#000" fill="#fff"/>
  <ellipse transform="rotate(130, 1592, 513.333)" stroke-width="7" ry="80" rx="200" id="svg_105" cy="513.33336" cx="1592.00196" stroke="#000" fill="#fff"/>
  <ellipse transform="rotate(140, 1592, 513.333)" stroke-width="7" ry="80" rx="200" id="svg_106" cy="513.33336" cx="1592.00196" stroke="#000" fill="#fff"/>
  <ellipse transform="rotate(150, 1592, 513.333)" stroke-width="7" ry="80" rx="200" id="svg_107" cy="513.33336" cx="1592.00196" stroke="#000" fill="#fff"/>
  <ellipse transform="rotate(160, 1592, 513.333)" stroke-width="7" ry="80" rx="200" id="svg_108" cy="513.33336" cx="1592.00196" stroke="#000" fill="#fff"/>
  <ellipse transform="rotate(170, 1592, 513.333)" stroke-width="7" ry="80" rx="200" id="svg_109" cy="513.33336" cx="1592.00196" stroke="#000" fill="#fff"/>
  <ellipse stroke-width="7" ry="80" rx="200" id="svg_110" cy="206.66616" cx="2053.33607" stroke="#000" fill="#fff"/>
  <ellipse transform="rotate(10, 2053.34, 206.666)" stroke-width="7" ry="80" rx="200" id="svg_111" cy="206.66616" cx="2053.33607" stroke="#000" fill="#fff"/>
  <ellipse transform="rotate(20, 2053.34, 206.666)" stroke-width="7" ry="80" rx="200" id="svg_112" cy="206.66616" cx="2053.33607" stroke="#000" fill="#fff"/>
  <ellipse transform="rotate(30, 2053.34, 206.666)" stroke-width="7" ry="80" rx="200" id="svg_113" cy="206.66616" cx="2053.33607" stroke="#000" fill="#fff"/>
  <ellipse transform="rotate(40, 2053.34, 206.666)" stroke-width="7" ry="80" rx="200" id="svg_114" cy="206.66616" cx="2053.33607" stroke="#000" fill="#fff"/>
  <ellipse transform="rotate(50, 2053.34, 206.666)" stroke-width="7" ry="80" rx="200" id="svg_115" cy="206.66616" cx="2053.33607" stroke="#000" fill="#fff"/>
  <ellipse transform="rotate(60, 2053.34, 206.666)" stroke-width="7" ry="80" rx="200" id="svg_116" cy="206.66616" cx="2053.33607" stroke="#000" fill="#fff"/>
  <ellipse transform="rotate(70, 2053.34, 206.666)" stroke-width="7" ry="80" rx="200" id="svg_117" cy="206.66616" cx="2053.33607" stroke="#000" fill="#fff"/>
  <ellipse transform="rotate(80, 2053.33, 206.666)" stroke-width="7" ry="80" rx="200" id="svg_118" cy="206.66616" cx="2053.33607" stroke="#000" fill="#fff"/>
  <ellipse transform="rotate(90, 2053.34, 206.666)" stroke-width="7" ry="80" rx="200" id="svg_119" cy="206.66616" cx="2053.33607" stroke="#000" fill="#fff"/>
  <ellipse transform="rotate(100, 2053.34, 206.666)" stroke-width="7" ry="80" rx="200" id="svg_120" cy="206.66616" cx="2053.33607" stroke="#000" fill="#fff"/>
  <ellipse transform="rotate(110, 2053.33, 206.666)" stroke-width="7" ry="80" rx="200" id="svg_121" cy="206.66616" cx="2053.33607" stroke="#000" fill="#fff"/>
  <ellipse transform="rotate(120, 2053.34, 206.666)" stroke-width="7" ry="80" rx="200" id="svg_122" cy="206.66616" cx="2053.33607" stroke="#000" fill="#fff"/>
  <ellipse transform="rotate(130, 2053.34, 206.666)" stroke-width="7" ry="80" rx="200" id="svg_123" cy="206.66616" cx="2053.33607" stroke="#000" fill="#fff"/>
  <ellipse transform="rotate(140, 2053.33, 206.666)" stroke-width="7" ry="80" rx="200" id="svg_124" cy="206.66616" cx="2053.33607" stroke="#000" fill="#fff"/>
  <ellipse transform="rotate(150, 2053.34, 206.666)" stroke-width="7" ry="80" rx="200" id="svg_125" cy="206.66616" cx="2053.33607" stroke="#000" fill="#fff"/>
  <ellipse transform="rotate(160, 2053.34, 206.666)" stroke-width="7" ry="80" rx="200" id="svg_126" cy="206.66616" cx="2053.33607" stroke="#000" fill="#fff"/>
  <ellipse transform="rotate(170, 2053.34, 206.666)" stroke-width="7" ry="80" rx="200" id="svg_127" cy="206.66616" cx="2053.33607" stroke="#000" fill="#fff"/>
  <ellipse stroke-width="7" ry="80" rx="200" id="svg_128" cy="788.00051" cx="2053.33607" stroke="#000" fill="#fff"/>
  <ellipse transform="rotate(10, 2053.34, 788)" stroke-width="7" ry="80" rx="200" id="svg_129" cy="788.00051" cx="2053.33607" stroke="#000" fill="#fff"/>
  <ellipse transform="rotate(20, 2053.34, 788)" stroke-width="7" ry="80" rx="200" id="svg_130" cy="788.00051" cx="2053.33607" stroke="#000" fill="#fff"/>
  <ellipse transform="rotate(30, 2053.34, 788)" stroke-width="7" ry="80" rx="200" id="svg_131" cy="788.00051" cx="2053.33607" stroke="#000" fill="#fff"/>
  <ellipse transform="rotate(40, 2053.34, 788)" stroke-width="7" ry="80" rx="200" id="svg_132" cy="788.00051" cx="2053.33607" stroke="#000" fill="#fff"/>
  <ellipse transform="rotate(50, 2053.34, 788)" stroke-width="7" ry="80" rx="200" id="svg_133" cy="788.00051" cx="2053.33607" stroke="#000" fill="#fff"/>
  <ellipse transform="rotate(60, 2053.34, 788)" stroke-width="7" ry="80" rx="200" id="svg_134" cy="788.00051" cx="2053.33607" stroke="#000" fill="#fff"/>
  <ellipse transform="rotate(70, 2053.34, 788)" stroke-width="7" ry="80" rx="200" id="svg_135" cy="788.00051" cx="2053.33607" stroke="#000" fill="#fff"/>
  <ellipse transform="rotate(80, 2053.33, 788)" stroke-width="7" ry="80" rx="200" id="svg_136" cy="788.00051" cx="2053.33607" stroke="#000" fill="#fff"/>
  <ellipse transform="rotate(90, 2053.34, 788)" stroke-width="7" ry="80" rx="200" id="svg_137" cy="788.00051" cx="2053.33607" stroke="#000" fill="#fff"/>
  <ellipse transform="rotate(100, 2053.34, 788)" stroke-width="7" ry="80" rx="200" id="svg_138" cy="788.00051" cx="2053.33607" stroke="#000" fill="#fff"/>
  <ellipse transform="rotate(110, 2053.33, 788)" stroke-width="7" ry="80" rx="200" id="svg_139" cy="788.00051" cx="2053.33607" stroke="#000" fill="#fff"/>
  <ellipse transform="rotate(120, 2053.34, 788)" stroke-width="7" ry="80" rx="200" id="svg_140" cy="788.00051" cx="2053.33607" stroke="#000" fill="#fff"/>
  <ellipse transform="rotate(130, 2053.34, 788)" stroke-width="7" ry="80" rx="200" id="svg_141" cy="788.00051" cx="2053.33607" stroke="#000" fill="#fff"/>
  <ellipse transform="rotate(140, 2053.33, 788)" stroke-width="7" ry="80" rx="200" id="svg_142" cy="788.00051" cx="2053.33607" stroke="#000" fill="#fff"/>
  <ellipse transform="rotate(150, 2053.34, 788)" stroke-width="7" ry="80" rx="200" id="svg_143" cy="788.00051" cx="2053.33607" stroke="#000" fill="#fff"/>
  <ellipse transform="rotate(160, 2053.34, 788)" stroke-width="7" ry="80" rx="200" id="svg_144" cy="788.00051" cx="2053.33607" stroke="#000" fill="#fff"/>
  <ellipse transform="rotate(170, 2053.34, 788)" stroke-width="7" ry="80" rx="200" id="svg_145" cy="788.00051" cx="2053.33607" stroke="#000" fill="#fff"/>
 </g>

</svg>