<svg width="2500" height="1000" xmlns="http://www.w3.org/2000/svg">
 <g id="Layer_1">
  <title>Layer 1</title>
  <rect fill="#ffffff" stroke="#000" stroke-width="0" x="-119.99988" y="-83.9999" width="2796.00033" height="1216.00014" id="svg_20"/>
  <ellipse stroke-width="10" ry="80" rx="300" id="svg_1" cy="504" cx="468" stroke="#000" fill="#fff"/>
  <ellipse transform="rotate(10, 468, 504)" stroke-width="10" ry="80" rx="300" id="svg_3" cy="504" cx="468" stroke="#000" fill="#fff"/>
  <ellipse transform="rotate(20, 468, 504)" stroke-width="10" ry="80" rx="300" id="svg_4" cy="504" cx="468" stroke="#000" fill="#fff"/>
  <ellipse transform="rotate(30, 468, 504)" stroke-width="10" ry="80" rx="300" id="svg_5" cy="504" cx="468" stroke="#000" fill="#fff"/>
  <ellipse transform="rotate(40, 468, 504)" stroke-width="10" ry="80" rx="300" id="svg_6" cy="504" cx="468" stroke="#000" fill="#fff"/>
  <ellipse transform="rotate(50, 468, 504)" stroke-width="10" ry="80" rx="300" id="svg_7" cy="504" cx="468" stroke="#000" fill="#fff"/>
  <ellipse transform="rotate(60, 468, 504)" stroke-width="10" ry="80" rx="300" id="svg_8" cy="504" cx="468" stroke="#000" fill="#fff"/>
  <ellipse transform="rotate(70, 468, 504)" stroke-width="10" ry="80" rx="300" id="svg_9" cy="504" cx="468" stroke="#000" fill="#fff"/>
  <ellipse transform="rotate(80, 468, 504)" stroke-width="10" ry="80" rx="300" id="svg_10" cy="504" cx="468" stroke="#000" fill="#fff"/>
  <ellipse transform="rotate(90, 468, 504)" stroke-width="10" ry="80" rx="300" id="svg_11" cy="504" cx="468" stroke="#000" fill="#fff"/>
  <ellipse transform="rotate(100, 468, 504)" stroke-width="10" ry="80" rx="300" id="svg_12" cy="504" cx="468" stroke="#000" fill="#fff"/>
  <ellipse transform="rotate(110, 468, 504)" stroke-width="10" ry="80" rx="300" id="svg_13" cy="504" cx="468" stroke="#000" fill="#fff"/>
  <ellipse transform="rotate(120, 468, 504)" stroke-width="10" ry="80" rx="300" id="svg_14" cy="504" cx="468" stroke="#000" fill="#fff"/>
  <ellipse transform="rotate(130, 468, 504)" stroke-width="10" ry="80" rx="300" id="svg_15" cy="504" cx="468" stroke="#000" fill="#fff"/>
  <ellipse transform="rotate(140, 468, 504)" stroke-width="10" ry="80" rx="300" id="svg_16" cy="504" cx="468" stroke="#000" fill="#fff"/>
  <ellipse transform="rotate(150, 468, 504)" stroke-width="10" ry="80" rx="300" id="svg_17" cy="504" cx="468" stroke="#000" fill="#fff"/>
  <ellipse transform="rotate(160, 468, 504)" stroke-width="10" ry="80" rx="300" id="svg_18" cy="504" cx="468" stroke="#000" fill="#fff"/>
  <ellipse transform="rotate(170, 468, 504)" stroke-width="10" ry="80" rx="300" id="svg_19" cy="504" cx="468" stroke="#000" fill="#fff"/>
  <text xml:space="preserve" text-anchor="start" font-family="'Open Sans'" font-size="250" id="svg_2" y="593.2549" x="904.5097" stroke-width="0" stroke="#000" fill="#000000">PhotoLoom</text>
 </g>

</svg>